<svg xmlns="http://www.w3.org/2000/svg" width="1106" height="987" fill="rgb(255, 165, 0)">
	<path opacity=".225" d="M241.223 896.22a6.31 6.31 0 0 0 2.682 3.968 6.32 6.32 0 0 0 4.696.946c.666-.14 1.306-.382 1.896-.72l48.403 67.675a6.33 6.33 0 0 0-1.655 2.462 6.31 6.31 0 0 0-.348 2.946c.12.996.474 1.95 1.035 2.78a6.32 6.32 0 0 0 2.19 2.001c.88.484 1.86.75 2.863.78a6.33 6.33 0 0 0 2.903-.612 6.32 6.32 0 0 0 2.303-1.87c.61-.797 1.02-1.728 1.196-2.715l144.87 8.136a5.6 5.6 0 0 0 .088.644c.487 1.46 1.5 2.69 2.82 3.463a6.32 6.32 0 0 0 8.196-1.634c.932-1.223 1.387-2.745 1.277-4.28-.08-.433-.208-.857-.38-1.263l68.82-42.03c.524.746 1.204 1.37 1.992 1.83s1.667.74 2.575.828 1.824-.024 2.686-.324a6.33 6.33 0 0 0 2.303-1.418 6.31 6.31 0 0 0 1.92-4.922 6.33 6.33 0 0 0-.736-2.603 6.3 6.3 0 0 0-1.757-2.056l48.86-73.89a6.31 6.31 0 0 0 4.044.416c1.358-.3 2.574-1.06 3.46-2.134l179.906 106.75a6.31 6.31 0 0 0-.516 2.908c.06.996.355 1.964.862 2.824s1.2 1.588 2.052 2.124a6.32 6.32 0 0 0 2.793.959c.994.095 1.996-.048 2.924-.415a6.32 6.32 0 0 0 2.416-1.699c.66-.75 1.132-1.644 1.38-2.61a6.31 6.31 0 0 0 .041-2.953 6.31 6.31 0 0 0-.998-2.337l184.34-172.77a6.32 6.32 0 0 0 3.106 3.098c1.372.63 2.925.745 4.375.328s2.705-1.34 3.534-2.6a6.31 6.31 0 0 0 .988-4.274c0-.2-.09-.38-.14-.57l84.207-39.503a6.33 6.33 0 0 0 3.18 2.351c1.3.423 2.68.422 3.96-.003 1.3-.424 2.4-1.25 3.18-2.354s1.2-2.432 1.16-3.784l115.43-23.093a6.12 6.12 0 0 0 2.05 2.841 6.24 6.24 0 0 0 3.25 1.29c1.2.1 2.38-.12 3.44-.668a6.25 6.25 0 0 0 2.54-2.415l86.48 34.615a6.01 6.01 0 0 0 0 2.602 6.35 6.35 0 0 0 1.64 3.182 6.33 6.33 0 0 0 3.1 1.784c1.18.284 2.42.22 3.57-.186a6.29 6.29 0 0 0 2.9-2.097 6.43 6.43 0 0 0 1.3-3.335 6.28 6.28 0 0 0-.73-3.503c-.57-1.073-1.44-1.958-2.5-2.548a6.31 6.31 0 0 0-3.49-.775l-36.47-193.892a6.31 6.31 0 0 0 3.16-3.063c.65-1.365.78-2.917.4-4.376-.4-1.46-1.3-2.726-2.56-3.573a6.32 6.32 0 0 0-4.27-1.04c-1.17.23-2.25.797-3.1 1.63l-75-57.936a6.28 6.28 0 0 0 .88-2.918c.04-1.03-.16-2.056-.6-2.99a6.36 6.36 0 0 0-1.92-2.363 6.35 6.35 0 0 0-2.81-1.188 6.29 6.29 0 0 0-3.03.265 6.26 6.26 0 0 0-2.56 1.655c-.7.752-1.22 1.666-1.5 2.66a6.41 6.41 0 0 0-.07 3.047 6.05 6.05 0 0 0 1.2 2.615l-54.15 56.76a6.21 6.21 0 0 0-2.38-1.023c-.85-.17-1.73-.16-2.6.03a6.23 6.23 0 0 0-4.06 3.015l-62.94-22.6a5.74 5.74 0 0 0 0-2.186 6.39 6.39 0 0 0-.73-2.564 6.43 6.43 0 0 0-1.73-2.032c-.72-.547-1.54-.935-2.42-1.138-.87-.203-1.78-.216-2.66-.04-.9.177-1.72.54-2.45 1.065a6.34 6.34 0 0 0-1.79 1.98 6.35 6.35 0 0 0-.81 2.542c-.1.895.02 1.8.3 2.65l-.25-.897-197.658 54.688a6.32 6.32 0 0 0-1.965-2.422c-.848-.63-1.84-1.04-2.885-1.187a6.32 6.32 0 0 0-3.101.338c-.99.37-1.87.982-2.56 1.78l-73.03-45.024c.42-.91.617-1.91.574-2.91s-.323-1.98-.818-2.852a6.32 6.32 0 0 0-4.827-3.162 6.31 6.31 0 0 0-2.942.389c-.936.36-1.772.94-2.44 1.69s-1.147 1.646-1.4 2.617a6.32 6.32 0 0 0-.05 2.967 6.2 6.2 0 0 0 1.604 3.07L663.84 631.81a6.32 6.32 0 0 0-7.866 1.858c-.888 1.18-1.333 2.633-1.26 4.108a6.32 6.32 0 0 0 1.66 3.964l-46.382 64.365a6.32 6.32 0 0 0-3.391-.631 6.33 6.33 0 0 0-3.218 1.245c-.936.705-1.657 1.657-2.083 2.75a6.32 6.32 0 0 0-.329 3.434c0 .24.114.467.2.707l-128.925 67.27a6.24 6.24 0 0 0-2.351-1.904c-.928-.433-1.95-.63-2.97-.575a6.23 6.23 0 0 0-2.892.89 6.24 6.24 0 0 0-2.134 2.145l-92.9-36.636c.234-.9.26-1.842.075-2.754-.472-1.446-1.45-2.673-2.755-3.455a6.32 6.32 0 0 0-8.156 1.438c-.96 1.182-1.458 2.67-1.407 4.2l-108.267 45.48c-.596-.848-1.39-1.537-2.316-2.005s-1.95-.702-2.986-.68-2.05.298-2.955.804a6.33 6.33 0 0 0-2.23 2.1c-.56.872-.897 1.868-.98 2.9a6.31 6.31 0 0 0 .5 3.021 6.32 6.32 0 0 0 4.649 3.701l3.968 89.34a6.31 6.31 0 0 0-3.954 2.668c-.92 1.372-1.264 3.05-.96 4.672zm8.35-104.046c-.054-.293-.135-.58-.24-.86l107.94-45.34c.16.333.35.65.568.948l-70.855 93.395-38.877-42.636a6.32 6.32 0 0 0 1.39-2.553 6.31 6.31 0 0 0 .1-2.904l-.025-.05zm583.522-208.925a6.02 6.02 0 0 0 2.199-.897l59.56 67.018-63.654-54.322 1.036-11.723a6.67 6.67 0 0 0 .859-.076zm212.784-59.135l43.68 39.718-36.8 27.186c-1.07-1.076-2.5-1.727-4.03-1.832l-5.2-63.683c.87-.283 1.68-.758 2.35-1.39zm134.18-37.495c1.17-.228 2.25-.795 3.1-1.63l75 57.935a6.32 6.32 0 0 0-.74 2.148l-87.5.126 8.84-58.453c.43.004.86-.038 1.28-.126zM463.783 976.135c-1.262-.77-2.758-1.066-4.218-.834s-2.792.975-3.754 2.097l-101.18-65.072c.13-.306.23-.624.303-.948l147.902 18.028-39.054 46.73zm-103.2-227.028l-12.092 154.35c-.265 0-.53 0-.796.1a6.33 6.33 0 0 0-2.261.948l-57.16-62.748 70.894-93.485c.43.34.907.622 1.415.834zM344.55 914.183l-10.575 14.578-79.245-32.378 87.938 13.302a6.87 6.87 0 0 0 .114 1.264c.254 1.23.87 2.356 1.768 3.234zm1.49 1.074c1.263.668 2.72.878 4.12.593 1.348-.277 2.568-.987 3.475-2.02l97.97 63-115.873-47.35 10.3-14.224zm17.032-4.75l152.54-1.34v.253a6.2 6.2 0 0 0 1.466 2.931l-12.85 15.362-141.155-17.206zm155.407 3.02a6.24 6.24 0 0 0 4.485.808 6.72 6.72 0 0 0 1.693-.593l10.803 14.78a6.32 6.32 0 0 0-1.63 2.805l-27.43-3.348 12.08-14.452zm20.152 13.315c-.584.12-1.15.32-1.68.594l-10.765-14.793c.735-.732 1.28-1.633 1.583-2.625a6.32 6.32 0 0 0 .161-3.06c-.135-.685-.383-1.342-.733-1.946l64.146-51.656h.064l-48.846 73.953c-1.21-.56-2.57-.725-3.88-.467h-.05zm127.927-287.187l57.197 14.074-15.048 81.963a5.57 5.57 0 0 0-1.44.113c-.172.03-.34.07-.505.127l-42.554-93.396a6.32 6.32 0 0 0 2.35-2.881zm594.132-88.14l-43.9 123.892-54.48-48.006c.6-.932.95-2.01 1-3.12a6.23 6.23 0 0 0-.72-3.196l96.58-70.67c.44.44.96.8 1.5 1.1zm36.35 197.44l-86.46-34.652c.32-1.348.2-2.764-.38-4.026a6.31 6.31 0 0 0-2.77-2.947l10.2-28.778 79.6 70.138c-.07.084-.12.173-.18.265zM1133.7 658.5l20.2-29.056a6.24 6.24 0 0 0 4.34.708c.3-.063.6-.148.87-.253l41.6 78.022a5.68 5.68 0 0 0-.67.568l-66.36-49.99zm-53.98 74.32a6.13 6.13 0 0 0-3.09-.644l-26.18-130.84a6.18 6.18 0 0 0 2.27-1.44l78.45 59.01-51.45 73.915zm-102.275 45.606a5.71 5.71 0 0 0-.619.606L873.982 711.65l28.34-47.033c1.42.492 2.97.46 4.372-.088l70.74 113.887zM600.73 845.18l73.926-69.987 77.463 70.884c-.507.76-.844 1.623-.985 2.527l-149.343-.746a3.23 3.23 0 0 1 0-.341c-.2-.843-.55-1.64-1.06-2.337zm298.015-183.76c.445.925 1.11 1.727 1.933 2.337l-28.25 46.88-44.727-29.296a6.21 6.21 0 0 0 1.269-2.2c.268-.813.365-1.672.285-2.524l69.49-15.198zm304.494 45.34c-.3.055-.58.135-.86.24l-41.58-78.034.28-.215 55.04 48.524-10.43 29.447a6.06 6.06 0 0 0-2.43 0l-.02.038zM756.088 843.438c-.167.03-.332.072-.493.126L711.84 747.2a6.31 6.31 0 0 0 2.64-3.6l77.287 9.298-33.19 90.54a6.1 6.1 0 0 0-2.489 0zm-41.392-101.67a6.01 6.01 0 0 0-.113-1.061c-.07-.36-.177-.7-.316-1.048l103.3-59.376a4.72 4.72 0 0 0 .531.784l-25.674 70.05-77.73-9.35zm104.868-59.375a6.37 6.37 0 0 0 1.491.72l21.088 69.66a6.3 6.3 0 0 0-2.085 1.584c-.577.668-1.007 1.45-1.263 2.294l-44.487-5.344 25.256-68.913zm27.557 70.227a6.14 6.14 0 0 0-3.222-.379l-9.324-30.837-11.498-37.975c.39-.005.78-.048 1.162-.126.7-.134 1.373-.39 1.984-.758l45.258 29.637-24.36 40.438zm-137.453-4.573l.492-.127 43.754 96.365a6.13 6.13 0 0 0-.543.392l-77.375-70.745 28.58-27.047c.71.557 1.534.953 2.414 1.16s1.793.22 2.678.04v-.038zm50.64 96.01L793.65 753.1l44.89 5.42c.001 1.335.446 2.632 1.263 3.688l-78.866 82.216c-.204-.125-.415-.24-.63-.34v-.025zm88.443-90.503l24.31-40.35 102.783 67.334c-.09.198-.17.4-.24.606l-124.54-22.625a5.71 5.71 0 0 0-.114-1.264c-.292-1.45-1.083-2.75-2.236-3.676l.038-.025zm205.07-155.134c.1-.17.2-.347.26-.53l96.75 25.455a6.11 6.11 0 0 0 .08 1.908c.23 1.153.78 2.217 1.6 3.07l-20.28 29.13-78.4-59.034zm-155.592 61.233l-69.4 15.16c-.38-.916-.97-1.73-1.723-2.374s-1.647-1.104-2.6-1.34l6.52-73.777 68.076 58.112a6.19 6.19 0 0 0-.872 4.22zm-75.555 11.306a5.07 5.07 0 0 0-.86.101l-.682.177-69.238-140.505c.19-.132.37-.275.543-.43l76.87 65.565-6.633 75.09zm-5.75 7.58L713.32 738.053a6.32 6.32 0 0 0-2.881-2.034l15.086-81.85 91.236 22.45c-.065.603-.036 1.212.088 1.806a.39.39 0 0 1 .051.114h.025zm-113.586 66.955l-28.744 27.186-62.517-57.202c.228-.303.43-.624.607-.96l89.517 26.53c-.098.702-.077 1.415.063 2.1.183.855.54 1.663 1.048 2.375l.026-.038zm-94.976-27.654a6.3 6.3 0 0 0 2.439-1.074l62.53 57.178-73.837 69.898a6.13 6.13 0 0 0-2.439-1.162l10.108-124.726a6.71 6.71 0 0 0 1.2-.114zm-6.582 131.89l149.342.733a3.23 3.23 0 0 0 0 .341 6.32 6.32 0 0 0 6.798 5.053l25.762 100.256a6.12 6.12 0 0 0-2.426 1.819L601.338 851.194a6.24 6.24 0 0 0 .442-1.465zm183.734 105.865L759.752 855.35c1.282-.53 2.35-1.473 3.037-2.68s.95-2.606.753-3.98l59.383-17.775-35.882 124.676a6.41 6.41 0 0 0-1.529 0zM763.037 846.95a6.12 6.12 0 0 0-.72-1.175l78.777-82.203c.35.253.722.473 1.112.657l-18.65 64.592-60.52 18.13zm80.988-82.254c1.46.2 2.942-.124 4.186-.912a6.24 6.24 0 0 0 2.612-3.396l124.452 22.626v.493L825.654 828.2l18.37-63.494zm136.278 12.38a5.33 5.33 0 0 0-1.263.391l-60.078-96.73-10.626-17.13a6.13 6.13 0 0 0 1.087-1.125l98.067 45.037L982.742 777c-.824-.155-1.672-.137-2.49.05l.05.026zm-69.996-116.224a6.22 6.22 0 0 0 .278-3.31l132.505-58.77a6.19 6.19 0 0 0 2.33 2.173L1008.1 705.8l-97.803-44.948zm136.863-59.287c.5.097 1 .13 1.5.1l26.18 130.84a6.32 6.32 0 0 0-3.13 2.464l-61.9-28.437 37.35-104.968zm34.1 132.28l51.36-73.865 66.3 49.926c-.55 1.007-.8 2.15-.74 3.297l-115.37 23.093c-.33-.93-.88-1.765-1.6-2.438l.06-.013zm217.1 13.48l-80.08-70.606 44.13-124.587c.48.084.96.118 1.44.1l36.46 193.942a6.09 6.09 0 0 0-1.95 1.15zm-40.92-200.41v.29c.12.6.32 1.16.6 1.693l-96.54 70.656a6.06 6.06 0 0 0-2.61-1.591l10.76-70.935 87.8-.114zm-100.37 70.745a6.22 6.22 0 0 0-1.27.127h-.12l-36.1-66.437a6.29 6.29 0 0 0 1.81-1.863 6.27 6.27 0 0 0 .91-2.433l45.48-.075-10.72 70.68zm-39.72-65.312c.2-.038.4-.088.6-.152l36.02 66.323a5.88 5.88 0 0 0-.87.594l-60.65-55.13 18.8-13.897a6.32 6.32 0 0 0 2.75 1.984c1.08.4 2.24.495 3.37.278zm34.5 68.13c-.16.23-.3.47-.42.72l-96.88-25.102c.13-1.244-.1-2.5-.7-3.6l37.1-27.4 60.9 55.384zm-113.7-95.696a6.28 6.28 0 0 0 3.56 1.024l5.2 63.53c-1.58.38-2.95 1.354-3.83 2.718s-1.2 3.015-.9 4.61l.1.43L909.928 655.8l-.29-.492 128.513-130.525zm-207.745 58.415l-.922 10.423-71.5-60.98 68.114 42.005a6.23 6.23 0 0 0-.511 2.656c.026.912.252 1.808.66 2.623s.993 1.53 1.71 2.097a6.25 6.25 0 0 0 2.436 1.176h.013zm-80.862-51.467l.682-.19 69.238 140.505c-.993.696-1.768 1.66-2.236 2.78l-91.35-22.424 22.2-120.506c.49-.005.976-.06 1.453-.165h.013zm-3.26-.227l-22.187 120.405-57.083-14.047a5.83 5.83 0 0 0-.089-1.807c-.23-1.16-.787-2.23-1.604-3.082l79.914-101.95a6.2 6.2 0 0 0 1.036.48h.013zM661.96 643.42a3.39 3.39 0 0 0 .505-.126l42.54 93.396c-.982.644-1.765 1.55-2.26 2.615l-89.467-26.53c.14-.764.14-1.547 0-2.31-.253-1.24-.874-2.376-1.78-3.26l46.382-64.365c1.255.65 2.694.855 4.08.58zm-56.856 74.22h.126l-10.108 124.84c-.934.054-1.843.32-2.658.78s-1.513 1.1-2.042 1.872l-33.242-16.638 47.924-110.855zm-15.465 129.186a6.23 6.23 0 0 0 .556 5.116l-64.16 51.656a6.46 6.46 0 0 0-.935-.72l31.397-72.64 33.14 16.588zm-66.23 55.32a6.14 6.14 0 0 0-2.843-.089l-.43.1-49.452-112.194c.72-.458 1.34-1.06 1.82-1.768l82.417 41.246-31.51 72.704zM468.483 790.81l.455-.114L518.48 902.9l-.303.203-81.823-84.54 27.24-28.828c.7.502 1.493.857 2.334 1.042s1.7.195 2.555.032zm48.34 113.57a6.4 6.4 0 0 0-1.264 2.943l-160.486 1.402v-.252a6.31 6.31 0 0 0-1.263-2.641l81.216-85.904 81.797 84.452zm-164.252.19c-.66-.46-1.4-.785-2.185-.96l12.078-154.123a5.92 5.92 0 0 0 1.757-.101c.7-.14 1.372-.4 1.983-.77l67.647 69.9-81.28 86.056zm-8.44 1.175a6.39 6.39 0 0 0-1.137 2.122L253.68 894.35c0-.177 0-.366-.075-.543a6.32 6.32 0 0 0-2.072-3.525l35.68-47.033 56.92 62.496zm-92.107-6.43c.452-.48.823-1.03 1.1-1.63l79.737 32.644-26.697 36.762c-1.265-.662-2.72-.867-4.12-.58-.564.107-1.1.3-1.617.568l-48.404-67.763zm57.488 72.703c0-.215 0-.43-.088-.657-.255-1.23-.87-2.356-1.77-3.234l26.95-37.167 119.828 48.966v.227l-144.92-8.135zm155.812 5.38l-.127-.138 39.838-47.652 28.617 3.486a8.05 8.05 0 0 0 .114 1.074c.085.433.212.856.38 1.264l-68.82 41.966zm324.712-20.516a5.92 5.92 0 0 0-1.263-.783l36.287-125.85 146.815-43.887-181.84 170.52zM986.67 779.717a6.31 6.31 0 0 0-2.274-2.059L1009.1 708.3l61.8 28.373c-.3.968-.33 1.99-.14 2.982.04.192.1.382.15.568l-84.22 39.504zm188.56-294.072c.54.385 1.13.68 1.76.872l-8.85 58.73-45.75.076c.01-.1.01-.203 0-.304-.2-.96-.64-1.857-1.26-2.615l54.1-56.76zm-65.2 59.224a6.07 6.07 0 0 0 0 2.615 7.99 7.99 0 0 0 .31 1.074l-19.28 14.15L1047 522.66l.22-.404 62.8 22.613zm-74.37-23.258c.24.727.6 1.403 1.1 1.996l-128.346 130.3c-.72-.608-1.566-1.046-2.48-1.28s-1.866-.258-2.79-.072c-.782.162-1.527.466-2.2.897l-64.285-72.336a6.23 6.23 0 0 0 1.199-2.242c.24-.82.3-1.684.203-2.534l197.596-54.74zM601.995 715.276c.418.6.94 1.123 1.54 1.54l-47.95 110.905-82.353-41.21c.31-.998.365-2.057.164-3.082a7.07 7.07 0 0 0-.278-.935l128.875-67.22zM461.18 783.14c-.228.902-.254 1.842-.076 2.754a6.19 6.19 0 0 0 1.162 2.527l-27.215 28.79-67.482-69.71a5 5 0 0 0 .72-.973l92.89 36.6zm-216.496 16.423c.705-.145 1.38-.4 1.996-.783l39.167 43.04-35.983 47.437a6.2 6.2 0 0 0-1.971-.493l-3.968-89.113a4.7 4.7 0 0 0 .759-.051v-.038z"/><path d="M946.2 377.955l-40.305-52.5c.458-.594.764-1.3.894-2.03s.077-1.498-.15-2.212a4.65 4.65 0 0 0-1.161-1.889 4.64 4.64 0 0 0-1.905-1.134 4.65 4.65 0 0 0-2.214-.12 4.64 4.64 0 0 0-2.017.922 4.63 4.63 0 0 0-1.358 1.753c-.304.685-.438 1.434-.39 2.182l-82.972 25.8a4.64 4.64 0 0 0-2.805-1.98c-1.153-.276-2.37-.1-3.397.492a4.63 4.63 0 0 0-2.128 2.693c-.34 1.137-.23 2.36.307 3.418a4.55 4.55 0 0 0 1.364 1.529l-35.213 64.984c-.715-.247-1.48-.315-2.23-.197a4.63 4.63 0 0 0-2.061.873 4.64 4.64 0 0 0-1.41 1.739 4.62 4.62 0 0 0-.427 2.196l-105.058 23.32-.24-.48a4.63 4.63 0 0 0-1.81-1.817c-.762-.424-1.628-.624-2.498-.578s-1.71.337-2.424.84a4.63 4.63 0 0 0-1.607 1.998l-56.856-14.35a4.64 4.64 0 0 0-.851-3.154c-.657-.913-1.624-1.556-2.72-1.81s-2.247-.1-3.238.432-1.755 1.406-2.15 2.46l-93.826-19.682a4.67 4.67 0 0 0-.556-2.527 4.62 4.62 0 0 0-1.427-1.628c-.598-.423-1.287-.698-2.01-.803a4.64 4.64 0 0 0-2.156.198c-.694.235-1.32.63-1.832 1.156s-.9 1.162-1.107 1.86a4.64 4.64 0 0 0-.141 2.161c.124.72.418 1.403.856 1.99a4.65 4.65 0 0 0 1.665 1.384l-19.9 60.285c-.775-.137-1.57-.074-2.315.182a4.62 4.62 0 0 0-1.933 1.285c-.525.585-.892 1.295-1.066 2.062a4.62 4.62 0 0 0 .07 2.32l-137.958 63.165.3.63a4.64 4.64 0 0 0-6.298-1.838 4.64 4.64 0 0 0-1.839 6.298c.258.482.606.91 1.024 1.263l-24.89 42.864a4.61 4.61 0 0 0-1.894-.283c-.645.04-1.274.213-1.847.51s-1.076.712-1.48 1.217a4.63 4.63 0 0 0-.857 1.713l-57.703-6.316a4.47 4.47 0 0 0-.568-2.047c-.358-.658-.87-1.22-1.49-1.636a4.65 4.65 0 0 0-2.08-.759 4.64 4.64 0 0 0-2.194.292 4.63 4.63 0 0 0-2.821 3.245c-.173.73-.167 1.488.017 2.214a4.65 4.65 0 0 0 1.042 1.953 4.64 4.64 0 0 0 1.829 1.248l-14.872 68.52a4.67 4.67 0 0 0-2.526.569c-1.022.57-1.79 1.505-2.152 2.618s-.288 2.32.204 3.38a4.64 4.64 0 0 0 5.839 2.389l71.727 127.088a4.65 4.65 0 0 0-1.572 2.09 4.64 4.64 0 0 0-.191 2.608c.188.87.622 1.666 1.25 2.296s1.425 1.066 2.294 1.255 1.775.125 2.61-.186 1.56-.855 2.093-1.567a4.64 4.64 0 0 0 .912-2.451c.062-.887-.132-1.774-.56-2.554a4.73 4.73 0 0 0-1.264-1.465l32.484-60.8c.83.298 1.727.353 2.587.16s1.647-.63 2.267-1.258 1.048-1.417 1.233-2.28a4.62 4.62 0 0 0-.186-2.585l76.364-41.917c.61.813 1.473 1.4 2.452 1.675s2.02.217 2.965-.162 1.736-1.057 2.255-1.93a4.62 4.62 0 0 0 .616-2.904l66.522-17.686c.053.135.116.266.19.39.535 1.067 1.46 1.885 2.585 2.285s2.36.35 3.447-.14a4.62 4.62 0 0 0 2.391-2.486c.447-1.106.448-2.342.005-3.45l186.74 10.107a4.44 4.44 0 0 0 .556 1.794c.28.556.67 1.05 1.144 1.453s1.027.706 1.622.89 1.22.248 1.84.185 1.22-.25 1.767-.55 1.026-.706 1.41-1.195a4.63 4.63 0 0 0 .832-1.653c.163-.6.204-1.23.12-1.846a4.63 4.63 0 0 0-.612-1.746c-.44-.795-1.104-1.444-1.908-1.87l51.032-146.14a4.6 4.6 0 0 0 2.977-.427c.917-.472 1.648-1.238 2.077-2.176l62.883 18.508c-.148.986.034 1.994.518 2.867a4.64 4.64 0 0 0 2.222 2.012c.943.405 1.995.487 2.99.23s1.876-.834 2.506-1.645a4.63 4.63 0 0 0 .975-2.834l58.992-8.982c.1.302.226.593.38.872.294.533.7 1.004 1.165 1.384s1.02.663 1.606.833 1.198.222 1.803.155 1.19-.253 1.724-.547 1.004-.69 1.385-1.164.663-1.022.833-1.606.222-1.198.155-1.803-.253-1.19-.547-1.724c-.08-.145-.168-.284-.265-.417L950.9 456.28a4.64 4.64 0 0 0 1.949.916c.713.148 1.45.127 2.153-.063a4.62 4.62 0 0 0 1.892-1.029 4.63 4.63 0 0 0 1.223-1.772 4.64 4.64 0 0 0 .291-2.134c-.072-.724-.314-1.42-.705-2.034a4.63 4.63 0 0 0-1.549-1.497 4.62 4.62 0 0 0-2.057-.636l-4.84-61.384a4.65 4.65 0 0 0 1.838-.758 4.64 4.64 0 0 0 1.352-1.458 4.65 4.65 0 0 0 .385-3.866 4.65 4.65 0 0 0-1.039-1.696 4.64 4.64 0 0 0-1.653-1.105c-.624-.244-1.294-.35-1.964-.31s-1.322.224-1.914.54l-.063-.038zm-44.575-50.71l-1.693 42.725-84.653-19.15a4.72 4.72 0 0 0-.139-.809l7.796-2.413 74.898-23.32a4.35 4.35 0 0 0 .266.606c.358.645.864 1.196 1.477 1.607a4.66 4.66 0 0 0 2.048.755zm-432.93 156.827l6.178 6.14-10.183 61.056 1.794-66.31a4.49 4.49 0 0 0 1.68-.531c.184-.107.36-.225.53-.353zm-147.22 67.9l27.405 38.543a4.57 4.57 0 0 0-1.415 2.956l-33.786 2.135 5.812-43.306c.678.042 1.356-.07 1.984-.328zm-95.064 42.484l32.85 28.88-49.604 41.6a4.69 4.69 0 0 0-1.441-.872l14.922-68.52a4.57 4.57 0 0 0 2.527-.556c.265-.152.515-.33.745-.53zm593.668-71.212l75.227-80.7c.197.135.404.253.62.354l-26.292 85.046c-1.074-.165-2.172.057-3.098.626s-1.62 1.45-1.956 2.48l-44.5-7.807zm-4.902-170.988L899.83 371.4l-2.527 62.76c-.607.066-1.195.25-1.73.543-.17.1-.336.21-.493.328l-80.382-81.647a4.76 4.76 0 0 0 .48-1.187v.05zm86.763 84.288c-.15-.27-.33-.524-.53-.758l43.45-49.42-29.44 56.028-12.938-3.222c.087-.926-.102-1.858-.543-2.678v.05zm12.824 7.112l-43.06 81.988 25.46-82.342a4.61 4.61 0 0 0 4.99-2.804l12.6 3.158zm-96.29 79.285l-14.594-2.6c.028-.82-.164-1.63-.555-2.35l-.102-.164 87.028-71.92-71.777 77.024zm-1.1 1.187l-13.898 14.958a4.58 4.58 0 0 0-2.249-.809l-.935-13.517c.44-.097.866-.254 1.264-.467 1.024-.556 1.797-1.483 2.16-2.6l13.658 2.425zm-20.77 16.802l-62.87-18.57v-.063l60.938-1.264c.1.508.26 1 .505 1.453.372.672.905 1.242 1.55 1.66a4.67 4.67 0 0 0 2.151.729l.922 13.53c-.44.09-.866.244-1.263.455a4.66 4.66 0 0 0-1.933 2.071zm-204.53-103.363l20.392 73.158-.34.164c-.3.177-.602.384-.872.62l-47.595-39.162 25.687-35.22c.845.416 1.796.57 2.73.442zm-380.86 231.184l88.354-5.988a5.22 5.22 0 0 0 .468 1.264 4.64 4.64 0 0 0 2.704 2.198l-7.96 53.147-83.882-49.27a4.66 4.66 0 0 0 .316-1.326v-.026zm72.978 130.424l11.637-77.592 19.546 11.445c-.4.95-.45 2.002-.17 2.99s.882 1.852 1.71 2.456l-32.484 60.8-.24-.088zm35.782-69.065h-.645l-13.607-64 .606-.265a4.69 4.69 0 0 0 2.123-2.464l25.332 6.822-13.81 59.906zm15.427-60.88l16.324-70.745c.668.057 1.34-.034 1.97-.265l47.506 86.562c-.632.476-1.132 1.107-1.453 1.83L335.4 669.222zm141.04-25.973L465.21 565.53c.262-.09.516-.205.758-.342a4.55 4.55 0 0 0 1.756-1.705l38.435 13.15-26.14 87.168c-.215-.02-.43-.02-.645 0l-2.93-20.554zm248.65-119.32l.127.215-84.21 71.54a4.63 4.63 0 0 0-1.781-.973l10.108-77.062 75.2 4.434c.06.646.25 1.274.556 1.845zm-210.28 11.56a4.65 4.65 0 0 0 1.365 1.297c.54.334 1.14.555 1.768.65l-11.37 37.9-38.32-13.113a4.62 4.62 0 0 0 0-2.236l46.56-24.496zM316.005 731.844l-19.963-11.723 8.05-53.69h.265l13.633 63.987c-.208.075-.4.164-.607.265-.534.29-1.003.684-1.377 1.162zm318.307-135.54l-61.9-35.474 39.344-42.08a4.6 4.6 0 0 0 3.209.784l.48 1.705 20.657 73.7-.34.164a4.67 4.67 0 0 0-1.44 1.201zm-63.174-36.17l-47.898-27.44a6.7 6.7 0 0 0-.076-.707l65.878-11.812 20.897-3.8c.086.258.196.508.33.745a3.88 3.88 0 0 0 .442.645l-39.572 42.358zm-.947 1.023l-22.654 24.218c-.552-.366-1.176-.61-1.83-.714a4.64 4.64 0 0 0-1.961.108l-9.362-21.805-11.8-27.692c.22-.345.39-.72.505-1.11l47.103 26.996zm-62.353 14.604l11.51-38.34c.52-.1 1.023-.26 1.5-.505.25-.15.49-.314.72-.493l11.573 26.984 9.413 21.906c-.694.423-1.262 1.025-1.643 1.743l-33.065-11.294zm111.022-59.868l29.06 1.706-10.107 76.935h-.493L616.18 519.13l.34-.164c.595-.307 1.114-.742 1.523-1.272s.695-1.144.84-1.798h-.025zM633.453 598l-83.82-9.083c-.036-.686-.226-1.356-.556-1.958-.147-.26-.316-.504-.505-.733l22.856-24.432 62.213 35.637c-.07.185-.125.375-.164.57h-.025zm-92.512-6.557a5.3 5.3 0 0 0 .556.796l-59.724 72.135c-.136-.088-.28-.164-.43-.227l26.078-87.08 33 11.27a4.66 4.66 0 0 0 .53 3.107zm-206.855 77.44l-25.358-6.835a4.6 4.6 0 0 0-.569-2.526 4.19 4.19 0 0 0-.859-1.124l42.693-60.462.39.177-16.298 70.77zm131.085-112.17l10.89-65.3 38.84 38.67c-.437.59-.726 1.277-.845 2.002s-.063 1.468.163 2.167l-46.52 24.457c-.572-.95-1.47-1.66-2.527-1.996zm11.156-66.955l12.307-73.74h.518l27.72 112.548-.467.215-.544.353-39.534-39.377zm46.37 40.855a4.38 4.38 0 0 0-.822-1.073l40.975-56.167 47.532 39.163a4.69 4.69 0 0 0-.657 2.526l-87 15.615-.038-.064zm95.72-17.913c-.244-.477-.574-.905-.973-1.263l38.056-57.67a5.33 5.33 0 0 0 .796.252l-8.15 62.168-29.174-1.72c-.063-.62-.252-1.222-.556-1.768zM660.3 453.11l65.145 65.806c-.407.54-.688 1.167-.82 1.83l-75.114-4.42 8.15-62.142a4.61 4.61 0 0 0 1.882-.556 4.66 4.66 0 0 0 .758-.518zm66.7 72.653l-51.03 146.176a4.5 4.5 0 0 0-2.237.114l-33.18-69.04a4.64 4.64 0 0 0 1.906-2.749c.27-1.12.114-2.303-.44-3.315l-.126-.228 84.2-71.54c.276.227.577.42.897.58zm-55.327 147.604l-79.776-53.5 42.124-18.242c.544.867 1.36 1.532 2.318 1.9a4.66 4.66 0 0 0 2.989.093l33.18 69.04a4.62 4.62 0 0 0-.834.72zm-81.115-54.398l-41.366-27.792a4.34 4.34 0 0 0 .316-.885l83.818 9.02c.014.342.065.68.152 1.01l-42.92 18.646zm-1.49.644l-106.005 45.922a2.56 2.56 0 0 0-.24-.278l59.71-72.097a4.64 4.64 0 0 0 4.7.152 4.72 4.72 0 0 0 1.201-.948l40.633 27.25zm-113.232 45.833l-47.14-27.6 34.114-72.21a4.45 4.45 0 0 0 1.15.114l14.19 98.133c-.313.092-.614.22-.897.38a4.56 4.56 0 0 0-1.415 1.175zm-48.39-28.285l-71.058-41.576a4.8 4.8 0 0 0 .29-2.349L459.7 563.408c.416.726 1.018 1.327 1.744 1.743l-34 72.01zm-.582 1.263l-21.48 45.605c-.97-.29-2.008-.253-2.956.1l-47.507-86.56a5.44 5.44 0 0 0 .822-.783l71.12 41.638zM399.66 690.08l-76.364 41.89a4.66 4.66 0 0 0-1.997-1.516l13.797-59.856 64.298 17.333c-.076.718.014 1.445.266 2.122v.026zm-118.4 109.15l-71.816-127.177c.277-.222.53-.472.758-.745l84.362 49.52-11.725 78.136a4.64 4.64 0 0 0-1.579.265zM260.31 624.3l39.9 34.98c-.413.646-.66 1.384-.72 2.148l-88.355 5.975a4.1 4.1 0 0 0-.467-1.263l-.165-.152 49.806-41.69zm1.062-.884l25.775-21.615a4.64 4.64 0 0 0 1.679.952c.62.195 1.275.26 1.92.185l11.207 54.815h-.088a4.06 4.06 0 0 0-.758.53l-39.736-34.867zm33.482-25.203l17.246-1.086-8.1 60.02c-.252 0-.518 0-.77.076l-11.195-54.714a2.72 2.72 0 0 0 .392-.189c.748-.406 1.37-1.01 1.798-1.744a4.64 4.64 0 0 0 .628-2.425v.063zm18.636-1.175l34.114-2.16c.087.443.245.87.467 1.263.22.414.507.79.847 1.112l-42.958 60.36c-.19-.08-.383-.148-.582-.203l8.112-60.373zm145.653-35.27c.013.145.038.29.076.43l-102.872 29.79c0-.1-.088-.202-.152-.303-.578-1.054-1.544-1.84-2.692-2.194a4.62 4.62 0 0 0-3.461.299l-27.33-38.455c.727-.585 1.256-1.38 1.516-2.274l134.914 12.71zm10.853-83.555c-.457-.82-1.148-1.483-1.983-1.908l18.573-56.217-11.435 68.573-5.496-5.458a4.62 4.62 0 0 0 .341-5.053v.063zm21.82-63.304l69.934 57.607-41.025 56.23c-.776-.41-1.654-.585-2.527-.505L490.466 415.7a4.12 4.12 0 0 0 .48-.227c.3-.177.602-.385.87-.62v.063zm1.264-1.832l93.825 19.67c-.06.878.132 1.755.556 2.526.215.397.487.758.81 1.074L562.6 471.44l-69.933-57.62a5 5 0 0 0 .379-.808l.025.063zm102.72 21.73l56.92 14.3c-.08.75.027 1.508.31 2.207a4.59 4.59 0 0 0 1.318 1.797l-38.03 57.632a4.56 4.56 0 0 0-2.527-.392l-20.456-73.157.342-.165c.93-.484 1.668-1.267 2.097-2.223h.025zm145.464 57.228l-10.89 25.266c-1.15-.315-2.38-.17-3.424.404-.177.1-.342.215-.506.328l-65.208-65.868v-.09l80.03 39.96zm1.263.606l52.384 26.176c-.09.28-.152.567-.2.86l-60.937 1.263c-.1-.508-.26-1-.505-1.453-.382-.7-.94-1.287-1.618-1.705l10.866-25.14zm.544-1.263l27.013-62.6a4.5 4.5 0 0 0 1.882.139l25.42 87.13c-.1 0-.202.09-.303.152-.62.34-1.154.82-1.554 1.402l-52.46-26.213zm32.774-65.945l29.174 3.348-6.065 86.852h-.265l-25.485-87.143c.11-.037.217-.088.316-.15.563-.307 1.056-.73 1.445-1.238s.668-1.095.817-1.718l.063.05zm30.525 3.512l86.927 9.98a4.73 4.73 0 0 0 .569 2.072l.1.164-91.55 75.647c-.594-.537-1.317-.91-2.098-1.087l6.052-86.776zm.09-1.364l5.054-71.794c.517-.088 1.016-.258 1.478-.505a4.75 4.75 0 0 0 1.049-.783l80.23 81.483a4.76 4.76 0 0 0-.77 1.592l-87.04-9.993zm94.76-55.863l42.617 9.64c-.17 1.022.007 2.072.506 2.98a3.25 3.25 0 0 0 .214.341l-44.196 50.128c-.503-.33-1.065-.556-1.655-.67l2.514-62.42zm51.474 76.442a4.29 4.29 0 0 0-1.187.455 4.62 4.62 0 0 0-2.06 2.286l-32.66-8.173 29.654-56.47a4.94 4.94 0 0 0 1.403.404l4.85 61.498zm-80.938 80.763l-.14-.1 44.538-84.806 32.964 8.212c-.09.928.103 1.862.556 2.678l.252.417-78.17 73.6zm-66.496 12.633c-.093-.302-.216-.594-.367-.872-.128-.23-.276-.45-.442-.657l14.543-15.6 45.27 8.01v.14l-59.004 8.982zm-318.888 124.03l104.034-45.075 80.51 53.994c-.16.334-.278.686-.354 1.05l-184.19-9.968zm-78.12 21.02a2.2 2.2 0 0 0-.189-.391 4.53 4.53 0 0 0-1.491-1.63l21.48-45.48 47.026 27.515c-.283.713-.387 1.486-.303 2.25l-66.522 17.736zM285.593 598.44a4.51 4.51 0 0 0 .569 2.059l.114.19-25.94 21.754-33.027-29.056a4.55 4.55 0 0 0 .581-1.339l57.702 6.393zM317.9 551.9l.316.127-5.862 43.66-17.69 1.11c-.088-.26-.198-.515-.328-.758-.312-.573-.743-1.072-1.264-1.465L317.9 551.9zm6.255-5.836l137.958-63.165c.345.534.797.99 1.328 1.34a4.59 4.59 0 0 0 1.755.693l-1.996 71.604a4.58 4.58 0 0 0-1.681.53c-.61.336-1.136.804-1.54 1.37s-.677 1.216-.797 1.9l-134.8-12.696c-.004-.567-.115-1.13-.328-1.655l.1.076zm442.784-120.23a4.87 4.87 0 0 0 .29.657 4.6 4.6 0 0 0 1.554 1.668l-27 62.56-79.99-39.97a4.55 4.55 0 0 0 .139-1.605l105.008-23.308zm42.225-70.3c.284.092.576.16.872.202l-5.054 71.63-29.06-3.348c-.035-.7-.23-1.383-.57-1.996-.332-.603-.793-1.126-1.352-1.53l35.163-64.96zm95.733-29.056l40.216 52.352a4.67 4.67 0 0 0-.884 1.263l-42.958-9.728 1.706-43.04c.522-.09 1.026-.264 1.5-.518a2.76 2.76 0 0 0 .43-.392v.063z" opacity=".1"/><path opacity=".75" d="M482.693 874.744l70.06 41.044c-.246.886-.273 1.818-.08 2.716a5.68 5.68 0 0 0 1.19 2.443c.59.707 1.34 1.26 2.188 1.612a5.69 5.69 0 0 0 2.687.412 5.68 5.68 0 0 0 2.57-.882c.773-.497 1.414-1.175 1.868-1.974s.707-1.697.738-2.615-.162-1.83-.56-2.66l82.38-67.65c1.194.857 2.674 1.218 4.13 1.007s2.772-.976 3.674-2.136 1.32-2.626 1.166-4.088-.87-2.806-1.995-3.752c-.656-.536-1.425-.916-2.25-1.112l9.956-90.074c.928-.05 1.828-.33 2.623-.81s1.46-1.148 1.937-1.944.753-1.698.802-2.625-.13-1.852-.523-2.694l108.66-75.015.48.455a5.7 5.7 0 0 0 6.006.717 5.7 5.7 0 0 0 2.365-2.075c.578-.9.89-1.944.903-3.013L855 650.078a5.69 5.69 0 0 0 2.426 3.189c1.168.733 2.564 1.017 3.927.797s2.598-.927 3.477-2 1.342-2.41 1.3-3.8l115.72-20.946c.33.972.916 1.837 1.697 2.503a5.69 5.69 0 0 0 2.74 1.278c1.012.17 2.05.065 3.008-.306s1.795-.996 2.425-1.805a5.68 5.68 0 0 0 1.157-2.793 5.67 5.67 0 0 0-.438-2.991c-.413-.94-1.073-1.75-1.9-2.344a5.69 5.69 0 0 0-2.841-1.033l-5.218-77.706a5.64 5.64 0 0 0 3.196-1.958c.807-1 1.246-2.264 1.246-3.556s-.44-2.546-1.246-3.556l127.61-135.464-.62-.594a5.7 5.7 0 0 0 4.18 1.242 5.69 5.69 0 0 0 3.83-2.076 5.68 5.68 0 0 0 1.24-4.177 5.67 5.67 0 0 0-2.07-3.832 5.95 5.95 0 0 0-1.73-.96l8.5-60.095c.8-.026 1.57-.216 2.28-.56a5.57 5.57 0 0 0 1.86-1.436c.52-.603.9-1.307 1.12-2.067a5.62 5.62 0 0 0 .19-2.342l68.58-19.38a5.56 5.56 0 0 0 1.59 2.071c.7.575 1.55.97 2.45 1.15a5.67 5.67 0 0 0 2.7-.111 5.75 5.75 0 0 0 2.35-1.347c.66-.632 1.16-1.413 1.45-2.28a5.6 5.6 0 0 0 .24-2.693c-.13-.904-.5-1.762-1.03-2.5s-1.25-1.335-2.07-1.74-1.73-.606-2.64-.586l-14.74-84.742a5.72 5.72 0 0 0 2.15-1.303c.6-.6 1.08-1.3 1.38-2.106s.4-1.648.33-2.494a5.65 5.65 0 0 0-.77-2.395c-.43-.73-1.03-1.354-1.73-1.826a5.72 5.72 0 0 0-2.35-.899 5.69 5.69 0 0 0-2.51.205c-.8.254-1.56.687-2.18 1.267L1045.03 87.605c.56-.935.84-2.01.8-3.1a5.63 5.63 0 0 0-1-3.043 5.71 5.71 0 0 0-2.48-2.02c-1-.42-2.1-.545-3.2-.356-1.07.19-2.07.682-2.87 1.422a5.65 5.65 0 0 0-1.64 2.747 5.63 5.63 0 0 0 .1 3.201 5.72 5.72 0 0 0 1.81 2.639c.6.514 1.34.88 2.1 1.074l-8.84 84.1a5.71 5.71 0 0 0-3.03 1.002 5.76 5.76 0 0 0-2.01 2.47 5.71 5.71 0 0 0-.36 3.164 5.65 5.65 0 0 0 1.39 2.864l-67.442 82.872a5.69 5.69 0 0 0-6.805.813 5.69 5.69 0 0 0-1.674 3.203c-.194 1.22.014 2.472.595 3.564l-67.406 50.873c-.127-.126-.266-.24-.405-.353-1.107-.897-2.51-1.345-3.933-1.256a5.69 5.69 0 0 0-3.746 1.737c-.987 1.028-1.55 2.39-1.582 3.814s.474 2.808 1.415 3.878l-216.85 74.75c-.4-.75-.942-1.402-1.616-1.91a5.69 5.69 0 0 0-4.781-.985c-.82.2-1.585.582-2.24 1.116a5.68 5.68 0 0 0-1.543 1.969c-.362.762-.55 1.596-.55 2.44s.19 1.677.552 2.44a5.68 5.68 0 0 0 1.547 1.966 5.62 5.62 0 0 0 3.032 1.264l9.552 189.634c-1.242.25-2.365.91-3.19 1.87a5.7 5.7 0 0 0-1.37 3.436l-80.09 7.908c-.29-1.2-.966-2.25-1.92-3.02-.98-.796-2.198-1.243-3.46-1.27a5.69 5.69 0 0 0-3.513 1.12c-1.013.753-1.748 1.822-2.086 3.04a5.68 5.68 0 0 0 .216 3.68l-62.91 37.432c-.24-.298-.51-.57-.808-.81-.58-.472-1.25-.825-1.966-1.04s-1.47-.284-2.214-.207-1.466.3-2.125.655a5.7 5.7 0 0 0-1.712 1.419c-.472.58-.825 1.248-1.04 1.965s-.284 1.47-.207 2.214.3 1.466.655 2.124a5.69 5.69 0 0 0 1.419 1.712l.492.354-54.847 119.748a5.68 5.68 0 0 0-2.63-.125 5.69 5.69 0 0 0-4.068 3.114 5.68 5.68 0 0 0-.565 2.572c.015.9.24 1.763.654 2.55s1.01 1.466 1.734 1.982 1.56.855 2.44.99 1.78.06 2.625-.217l33.835 67.523a6 6 0 0 0-1.377 1.264c-.474.576-.83 1.24-1.048 1.955a5.68 5.68 0 0 0-.221 2.207 5.69 5.69 0 0 0 6.209 5.11 5.69 5.69 0 0 0 3.841-2.046v-.063zm74.14 37.052l-17.828-49.344 105.008-17.308c.152.3.33.588.53.86l-7.745 6.316-74.393 61.093a5.06 5.06 0 0 0-.594-.568 5.66 5.66 0 0 0-4.978-1.049zm419.55-378.144l-9.856-4.144-16.627-74.055 28.58 76.203c-.635.354-1.196.826-1.655 1.4a4.45 4.45 0 0 0-.442.606zm135.977-145.154l-48.94-31.153c.57-1.26.65-2.684.24-4.004l37.4-18.028 13.4 51.922c-.8.26-1.5.692-2.1 1.263zm88.44-92.22l-50.7-17.686 37.17-70.19a5.87 5.87 0 0 0 2.02.328l14.75 84.743c-1.03.34-1.94.967-2.62 1.806-.25.333-.47.693-.64 1.074v-.076zM558.957 651.392l-48.19 126.33a4.75 4.75 0 0 0-.872-.126l-9.362-108.644c1.304-.304 2.458-1.06 3.254-2.138a5.63 5.63 0 0 0 1.092-3.737l54.077-11.685zm84.538 192.022l-105.07 17.32-26.18-72.476a5.71 5.71 0 0 0 1.718-1.415c.15-.2.3-.388.417-.594l129.077 55.775c-.05.505-.032 1.015.05 1.516l-.013-.126zM505.98 787.79c.295.24.612.452.948.63l-26.533 76.215 7.58-77.327L504.16 785c.312 1.092.946 2.065 1.82 2.792zm-17.89-2.186l11.068-113.09 9.097 105.334a5.68 5.68 0 0 0-3.095 1.946 5.57 5.57 0 0 0-1.264 3.55l-15.806 2.26zm72.776-134.554l17.777-3.8c.353.943.95 1.776 1.73 2.413l.2.14-65.7 121.883 46.003-120.645zm.708-1.87l8.945-23.434c.972.21 1.982.168 2.932-.127l7.302 14.945a5.5 5.5 0 0 0-1.2 1.099c-.904 1.107-1.355 2.516-1.263 3.942l-16.716 3.575zm15.83-28.702l80.03-7.92v.076l-68.657 29.624a5.56 5.56 0 0 0-1.264-1.415 5.63 5.63 0 0 0-2.467-1.113c-.9-.165-1.827-.108-2.7.166l-7.302-14.945a5.46 5.46 0 0 0 1.187-1.099c.765-.96 1.195-2.146 1.226-3.373h-.05zm280.25 23.03l-56.97-73.727a4.4 4.4 0 0 0 .316-.353 5.17 5.17 0 0 0 .707-1.112l72.208 22.6-12.938 51.884c-1.154-.104-2.312.142-3.323.708zm326.106-438.632l-97.66 47.59c-.3-.443-.68-.842-1.1-1.188-1.14-.938-2.6-1.392-4.1-1.263l-15.52-64.075 118.08 17.245a6.09 6.09 0 0 0 .29 1.692zM1040.57 90.36l22.6 93.573-27.43-4.005a5.7 5.7 0 0 0-.55-2.435c-.36-.76-.9-1.43-1.54-1.96-.64-.512-1.38-.883-2.18-1.087l8.85-84.072.24-.013zm-8.78 95a6.13 6.13 0 0 0 .74-.29l45.02 66.45a4.56 4.56 0 0 0-.57.594c-.87 1.068-1.32 2.415-1.26 3.8l-31.94 3.942-12-74.485zm10.57 76.33l14.15 87.976a5.54 5.54 0 0 0-2.11 1.264l-93.975-76.506c.494-.836.768-1.783.796-2.754l81.14-9.98zm-148.28 94.66l48.67 83.138c-.26.225-.5.47-.72.733a5.7 5.7 0 0 0-1.264 2.741l-49.78 2.83-10.46-111.095c.253 0 .505-.15.758-.24l12.8 21.893zM666.655 606.76l-.253-.177L729.07 486.38a5.65 5.65 0 0 0 2.464.278l24.107 92.22-87.52 29.7a5.94 5.94 0 0 0-1.529-1.819h.063zm233.578-110.223c-.65-.426-1.384-.713-2.15-.844a5.67 5.67 0 0 0-2.309.086l-4.574-48.32 49.617-2.817c.14.914.5 1.78 1.048 2.526l-41.63 49.37zM1035.5 181.57l28.1 4.106 15.65 64.744-.3.127-45.05-66.437c.2-.18.4-.378.57-.594a5.76 5.76 0 0 0 1.03-1.946zM736.323 482.59l86.775 11.724-25.27 65.982c-1.363-.294-2.787-.083-4.006.594l-1.34-1.718-57.513-74.232.303-.34c.48-.593.838-1.276 1.05-2.01zm88.443 11.95l67.128 9.058a5.61 5.61 0 0 0 .417.77l-91.5 57.76c-.42-.514-.935-.943-1.516-1.264l25.472-66.323zm.62-1.604l14.58-37.988c.79.157 1.6.146 2.385-.032s1.52-.52 2.164-1.004l47 46.477a5.45 5.45 0 0 0-.063 1.503l-66.067-8.956zm64.11-45.39l4.624 48.9a5.97 5.97 0 0 0-1.453 1.263 6.45 6.45 0 0 0-.594.897l-46.433-45.82a5.65 5.65 0 0 0 1.062-2.754l42.794-2.476zm-98.55 119.32l-33.836 11.47-24.07-92.095.556-.278 58.84 75.95-.304.34a5.69 5.69 0 0 0-1.137 4.611h-.05zm-54.456-86.6l99.46-28.45c.36.764.886 1.438 1.54 1.97.278.228.58.427.897.594l-14.72 38.328-87.18-11.774c.013-.223.013-.446 0-.67zm108.18-35.297c-.306-.258-.64-.478-1-.657l34.57-109.528c.197.032.395.054.594.063l10.537 111.032-42.693 2.425a5.65 5.65 0 0 0-1.996-3.335h-.012zM1044.03 261.46l31.98-3.942c.35.993.97 1.867 1.8 2.527.45.368.95.666 1.5.884l-20.6 88.43h-.52l-14.14-87.9zm-97.175 188.017l17.777 79.247-62.01-26.024c.22-.873.232-1.784.035-2.662s-.6-1.697-1.172-2.39l41.568-49.27a5.7 5.7 0 0 0 3.803 1.099zm18.232 81.243l20.077 89.492a4.92 4.92 0 0 0-.582.253l-83.5-115.112a5.01 5.01 0 0 0 .43-.468 6.61 6.61 0 0 0 .455-.644l63.1 26.48zm-71.563-25.013c.43.343.906.624 1.415.833l-20.62 82.823-72.13-22.64c.166-1.075.022-2.175-.417-3.17l91.665-57.922.088.076zm-100.522 64.554a5.55 5.55 0 0 0 1.668.935L778.055 654.3c-.343-.013-.686.013-1.023.076l-19.445-74.42 33.95-11.522a5.57 5.57 0 0 0 1.465 1.819zm-20.076 87.067l-104.44-44.708c.226-.824.26-1.688.1-2.527l87.407-29.574 19.445 74.396c-.73.364-1.375.876-1.895 1.504-.233.284-.44.59-.62.91zm-109.38-51.795l-9.49-189.66a5.59 5.59 0 0 0 2.527-1.175l69.592 63.165a5.67 5.67 0 0 0 1.137 7.58l.253.2-62.72 120.152c-.42-.145-.858-.234-1.3-.265v.013zm-5.27-193.286l115.38 24.003-39.458 40.186c-1.015-.74-2.247-1.12-3.503-1.083s-2.463.488-3.433 1.285l-69.592-63.165a5.64 5.64 0 0 0 .606-1.226zm117.377 24.382l59.813 12.418c-.04.387-.04.776 0 1.163l-99.436 28.45c-.168-.38-.38-.74-.63-1.074l40.254-40.956zm1.39-1.427l99.272-101.14a3.9 3.9 0 0 0 .391.214L842.15 443.78c-1-.182-2.03-.092-2.985.262a5.66 5.66 0 0 0-2.435 1.746c-.406.48-.72 1.034-.922 1.63l-58.765-12.216zm107.598-104.4l66.32 9.59-5.395 97.805a5.89 5.89 0 0 0-1.351.404L882.76 333.608a5.95 5.95 0 0 0 .847-.847c.458-.578.793-1.245.985-1.958h.05zm67.975 9.83l99.983 14.452c0 .985.26 1.952.75 2.805l-103.336 81.47a5.65 5.65 0 0 0-2.78-1.175l5.383-97.552zm.1-1.668l3.4-61.775a5.65 5.65 0 0 0 3.297-1.466l93.976 76.443a5.33 5.33 0 0 0-.55 1.263l-100.122-14.465zm7.063-71.263l67.44-82.885c.9.534 1.92.81 2.96.796l11.97 74.41-81.08 9.992c-.256-.866-.715-1.66-1.34-2.312h.05zm84.16-178.795L1184.2 200.33c-.23.396-.4.82-.52 1.264L1065 184.184l-22.74-94.204a5.56 5.56 0 0 0 1.69-1.074zm104.55 189.256l-61.52-21.413c.18-.926.12-1.88-.16-2.78l97.65-47.588c.3.472.68.897 1.1 1.263l.23.164-37.3 70.354zm-.78 1.5l-19.32 36.472c-.75-.268-1.55-.374-2.34-.31a5.64 5.64 0 0 0-2.27.677l-38.07-57.126c.04-.023.07-.053.1-.09.24-.297.45-.614.63-.947l61.28 21.324zm-26.42 44.102l-19.1 9.16-18.6-72.008c.3-.117.58-.265.85-.442l38 57.013c-.13.126-.24.265-.35.404-.67.8-1.1 1.788-1.23 2.825s.01 2.092.43 3.05zm-20.64 9.942l-37.72 18.167c-.3-.475-.68-.9-1.1-1.264-.45-.36-.95-.652-1.48-.87l20.9-88.432a4.94 4.94 0 0 0 .75 0l18.67 72.4zm-149.246 107.38l-.278-.442 103.214-81.382.3.278c1.15.93 2.6 1.38 4.08 1.25 1.48-.13 2.84-.827 3.8-1.944l48.8 31.1a5.69 5.69 0 0 0-.68 3.285l-159.246 47.866zm26.242 99.978a5.64 5.64 0 0 0 3.133 1.263l4.865 72.476-18.674-83.214 8.756 3.676a5.71 5.71 0 0 0 1.92 5.748v.05zm4.448 82.026l-106.132-33.237 20.658-82.835a5.78 5.78 0 0 0 3.171-.619l83.5 115.112-.43.467c-.294.323-.55.68-.758 1.062v.05zm-.57 2.653l-115.71 20.958c-.357-1-.977-1.863-1.794-2.526a6.09 6.09 0 0 0-1.428-.847l12.913-51.795 106.132 33.2c-.064.317-.102.638-.114.96v.05zm-126.777 22.74l-71.336 9.968c-.324-1.103-.976-2.08-1.87-2.805-.545-.44-1.165-.78-1.832-.998l16.602-83.062c1.066.056 2.125-.19 3.058-.707l56.957 73.726-.315.34c-.796.986-1.24 2.208-1.264 3.474v.063zm-191.757 2.135l.72-33.73c1.45-.18 2.777-.913 3.702-2.046l.417-.607 104.54 44.746c-.007.042-.007.085 0 .127l-109.38-8.5zm-1.68-.14l-71.626-5.558c-.028-.358-.087-.713-.177-1.06l68.645-29.675c.342.536.77 1.014 1.263 1.415a5.61 5.61 0 0 0 2.641 1.187l-.746 33.692zm0 1.68l-1.806 83.63c-.768.09-1.51.332-2.186.708l-69.163-87.358c.095-.1.184-.187.266-.3a5.64 5.64 0 0 0 1.137-2.325l71.752 5.635zm-6.835 90.073l-34.695 9.652-33.217-101.494.29-.152 69.125 87.282a3.34 3.34 0 0 0-.291.316 5.7 5.7 0 0 0-1.064 2.072c-.21.756-.26 1.547-.15 2.324zm-36.3 10.107l-103.415 28.8a5.6 5.6 0 0 0-1.604-2.097l-.2-.14 69.112-128.238c.928.33 1.923.416 2.893.253l33.204 101.43zm.52 1.59l27.467 83.91a5.52 5.52 0 0 0-1.453 1.263c-.34.418-.622.88-.833 1.377L515 784.885a5.66 5.66 0 0 0 .152-2.16l103.542-28.804zm-81.937 107.267l-52.89 8.63a5.58 5.58 0 0 0-1.958-3.158c-.122-.108-.253-.206-.392-.29l26.988-77.403a5.51 5.51 0 0 0 2.186 0l26.065 72.223zm-93.812-63.165a5.64 5.64 0 0 0 1.778-2.008c.422-.803.644-1.696.647-2.603l40.848-5.836-7.58 77.87a5.33 5.33 0 0 0-1.782.189l-33.91-67.612zM497.69 668.85h.202l-11.435 116.943-41.328 5.95a5.63 5.63 0 0 0-1.857-2.792c-.158-.126-.323-.244-.493-.354l54.91-119.748zm69.743-45.062c.245.3.52.576.822.82.256.2.526.38.808.543l-9.324 24.445-55.2 11.774s0-.114-.063-.164l62.958-37.42zm305.04-288.26l-97.427 99.27-116.43-24.18c.028-.457-.001-.915-.088-1.365l213.944-73.726zm79.08-59.944l.392.354a5.85 5.85 0 0 0 2.451 1.162l-3.4 61.612-66.168-9.59c-.002-.94-.24-1.866-.695-2.69l67.42-50.848zm180.125 43.56c-.37-.804-.9-1.513-1.6-2.072l-.2-.164 19.43-36.7 50.94 17.686c-.1.595-.1 1.2 0 1.794l-68.56 19.455zm-15.17 67.802a2.16 2.16 0 0 0-.41 0l-13.5-52.34 19.56-9.424c.23.254.47.49.73.707.62.505 1.34.87 2.1 1.074l-8.5 59.982zm-4.4 9.512L984.494 531.934a5.65 5.65 0 0 0-2.124-.911 5.66 5.66 0 0 0-2.311.014l-30.854-82.254a5.59 5.59 0 0 0 1.655-1.389 5.66 5.66 0 0 0 1.126-2.269 5.65 5.65 0 0 0 .024-2.532l159.05-47.778a5.97 5.97 0 0 0 1.12 1.731l-.08-.09zM664.318 737.55a6.08 6.08 0 0 0-.645-.619c-.73-.6-1.6-1.004-2.527-1.175l1.807-83.567 109.366 8.49a5.89 5.89 0 0 0 .581 1.895L664.318 737.55zm-15.53 99.422a5.26 5.26 0 0 0-1.086.177l-27.455-83.732 34.657-9.64a5.75 5.75 0 0 0 1.554 1.996c.656.536 1.425.916 2.25 1.112l-9.92 90.086zm-95.354 77.29l-69.87-40.93a6 6 0 0 0 .43-1.794l53.344-8.843 17.94 49.71c-.556.335-1.052.762-1.466 1.263a5.31 5.31 0 0 0-.379.581v.013z"/>
</svg>